<?xml version="1.0" encoding="UTF-8"?>
<svg viewBox="0 0 389.6125 273.05" xmlns="http://www.w3.org/2000/svg">
 <defs>
  <clipPath id="a">
   <path d="m0 0h1298.7v910h-1298.7v-910z"/>
  </clipPath>
 </defs>
 <g transform="matrix(1.25,0,0,-1.25,0,273.05)">
  <g transform="scale(.24)">
   <g clip-path="url(#a)">
    <path d="m131.31 910.18c-72.391 0-131.31-58.895-131.31-131.31v-647.55c0-72.395 58.918-131.31 131.31-131.31h1036.1c72.41 0 131.3 58.914 131.3 131.31v647.55c0 72.418-58.89 131.31-131.3 131.31h-1036.1" fill="#231f20"/>
    <path d="m3.6055 131.31v647.55c0 70.426 57.305 127.73 127.7 127.73h1036.1c70.42 0 127.73-57.305 127.73-127.73v-647.55c0-70.426-57.31-127.73-127.73-127.73h-1036.1c-70.399 0-127.7 57.305-127.7 127.73" fill="#f7d419"/>
    <path d="m1264.5 778.86c0 53.66-43.47 97.153-97.13 97.153h-1036.1c-53.633 0-97.125-43.493-97.125-97.153v-283.41h1230.4v283.41" fill="#231f20"/>
    <path d="m57.777 702.69c0 57.774 0 112.55 100.93 112.55 59.613 0 85.129-23.347 85.129-72.437h-59.988c0 29.031-6.895 39.82-25.141 39.82-34.449 0-38.902-24.266-38.902-79.934 0-55.984 4.453-80.25 38.902-80.25 27.981 0 27.176 27.266 27.981 44.321h60.394c0-58.067-31.203-76.938-88.375-76.938-100.93 0-100.93 55.672-100.93 112.87" fill="#f7d419"/>
    <path d="m237.84 593.43 68.004 218.21h67.648l66.613-218.21h-54.035l-13.609 48.484h-70.02l-13.945-48.484h-50.656" fill="#f7d419"/>
    <path d="m336.78 769.73h-0.691l-23.461-94.285h48.957l-24.805 94.285" fill="#231f20"/>
    <path d="m601.37 811.64v-154.77c0-32.613-20.73-67.043-83.269-67.043-56.434 0-83.633 26.035-83.633 67.043v154.77h51.328v-151.77c0-26.949 12.914-37.426 31.605-37.426 22.457 0 32.641 13.184 32.641 37.426v151.77h51.328" fill="#f7d419"/>
    <path d="m778.72 811.64v-36.219h-57.106v-181.99h-51.328v181.99h-57.125v36.219h165.56" fill="#f7d419"/>
    <path d="m791.48 593.43h51.328v218.21h-51.328v-218.21z" fill="#f7d419"/>
    <path d="m854.27 702.69c0 57.774 0 112.55 84.664 112.55 84.64 0 84.64-54.777 84.64-112.55 0-57.195 0-112.87-84.64-112.87-84.664 0-84.664 55.672-84.664 112.87" fill="#f7d419"/>
    <path d="m971.57 702.69c0 55.668-3.742 79.934-32.636 79.934-28.903 0-32.637-24.266-32.637-79.934 0-55.984 3.734-80.25 32.637-80.25 28.894 0 32.636 24.266 32.636 80.25" fill="#231f20"/>
    <path d="m1035.1 593.43v218.21h69.34l65.28-151.16h0.67v151.16h47.92v-218.21h-67.64l-66.95 159.54h-0.7v-159.54h-47.92" fill="#f7d419"/>
   </g>
  </g>
 </g>
</svg>
