<?xml version="1.0" encoding="UTF-8"?>
<svg viewBox="0 0 450.45 144.5" xmlns="http://www.w3.org/2000/svg">
 <defs>
  <clipPath id="a">
   <path d="m0 481.66v-481.66h1501.5v481.66"/>
  </clipPath>
 </defs>
 <g transform="matrix(1.25,0,0,-1.25,0,144.5)">
  <g transform="scale(.24)">
   <g clip-path="url(#a)">
    <path d="m60.832 481.66c-33.547 0-60.832-27.289-60.832-60.832v-360c0-33.539 27.285-60.828 60.832-60.828h1379.8c33.54 0 60.82 27.289 60.82 60.828v360c0 33.543-27.28 60.832-60.82 60.832h-1379.8" fill="#231f20"/>
    <path d="m1.6641 60.828v360c0 32.621 26.543 59.164 59.168 59.164h1379.8c32.62 0 59.16-26.543 59.16-59.164v-360c0-32.625-26.54-59.164-59.16-59.164h-1379.8c-32.625 0-59.168 26.539-59.168 59.164" fill="#f7d419"/>
    <path d="m75.828 463.33c-31.703 0-57.496-25.793-57.496-57.496v-330c0-31.703 25.793-57.5 57.496-57.5h1349.9c31.7 0 57.49 25.797 57.49 57.5v330c0 31.703-25.79 57.496-57.49 57.496h-1349.9" fill="#231f20"/>
    <path d="m43.332 75.828v330c0 17.918 14.578 32.496 32.496 32.496h1349.9c17.92 0 32.49-14.578 32.49-32.496v-330c0-17.918-14.57-32.5-32.49-32.5h-1349.9c-17.918 0-32.496 14.582-32.496 32.5" fill="#f7d419"/>
    <path d="m148.71 341.58c55.309 0 75.187-42.5 75.187-98.25 0-55.254-21.562-98.254-65.066-98.254h-45.746v196.5h35.625" fill="#231f20"/>
    <path d="m156.77 178.08c23.066 0 36.941 20 36.941 69.754 0 41.25-13.129 60.25-40.125 60.25h-11.066v-130h14.25" fill="#f7d419"/>
    <path d="m344.08 308.08h-61.309v-46.754h50.809v-33.5h-50.809v-49.75h64.872v-33h-94.125v196.5h90.562v-33.5" fill="#231f20"/>
    <path d="m490.52 145.08h-29.817l-9.375 49.004h-43.125l-9.562-49.004h-29.809l40.871 196.5h39.188l41.629-196.5" fill="#231f20"/>
    <path d="m429.95 307.58h-0.371l-15.562-82.5h31.308l-15.375 82.5" fill="#f7d419"/>
    <path d="m547.89 341.58c55.316 0 75.187-42.5 75.187-98.25 0-55.254-21.562-98.254-65.062-98.254h-45.75v196.5h35.625" fill="#231f20"/>
    <path d="m555.96 178.08c23.063 0 36.934 20 36.934 69.754 0 41.25-13.121 60.25-40.125 60.25h-11.059v-130h14.25" fill="#f7d419"/>
    <path d="m816.95 308.08h-61.308v-46.754h50.808v-33.5h-50.808v-49.75h64.871v-33h-94.125v196.5h90.562v-33.5" fill="#231f20"/>
    <path d="m896.26 341.58 43.5-129.75h0.375v129.75h29.246v-196.5h-31.313l-54.933 157.75h-0.379v-157.75h-29.25v196.5h42.754" fill="#231f20"/>
    <path d="m1038.4 341.58c55.31 0 75.19-42.5 75.19-98.25 0-55.254-21.56-98.254-65.06-98.254h-45.75v196.5h35.62" fill="#231f20"/>
    <path d="m1046.4 178.08c23.07 0 36.94 20 36.94 69.754 0 41.25-13.13 60.25-40.12 60.25h-11.06v-130h14.24" fill="#f7d419"/>
    <path d="m1171.1 274.14h112.18s-23.98 35.258-16.18 50.57 19.03 7.32 19.03 7.32l114.58-91.199-114.58-91.195s-11.23-7.992-19.03 7.32 16.18 50.574 16.18 50.574h-112.18v66.61" fill="#231f20"/>
   </g>
  </g>
 </g>
</svg>
