<?xml version="1.0" encoding="UTF-8"?>
<svg viewBox="0 0 744.09447 1052.362179" xmlns="http://www.w3.org/2000/svg">
 <path transform="matrix(.80662 0 0 .80662 133.19 123.15)" d="m291.34-65.688c-10.868 0.53434-20.712 6.5473-26.156 15.969l-405.62 702.62c-5.7255 9.9109-5.7205 22.117 0 32.031s16.273 16.028 27.719 16.031l807.88 0.15625c11.419-0.00636 21.96-6.09 27.688-15.969s5.7621-22.056 0.09375-31.969l-402.25-702.78c-5.9823-10.459-17.309-16.677-29.344-16.094z" fill="none" stroke="#000" stroke-linecap="round" stroke-width="12.5"/>
 <path transform="matrix(.80662 0 0 .80662 133.19 123.15)" d="m292.91-32.375c-134.83 233.55-269.67 467.1-404.5 700.66l805.62 0.15625-401.12-700.81z" fill="#fc0" fill-rule="evenodd" stroke="#000" stroke-linecap="round" stroke-linejoin="round" stroke-width="29.444"/>
 <g transform="matrix(.9257 0 0 .9257 -555.54 27.814)">
  <path transform="matrix(1.6154 0 0 1.6154 -666.03 -406.83)" d="m1062.4 615.76a29.014 29.014 0 1 1 -58.028 0 29.014 29.014 0 1 1 58.028 0z" fill="#030303"/>
  <path d="m998.03 214.59c-26.416 0.39675-47.519 22.115-47.156 48.531l7.5 200.88c0.64425 17.255 3.827 30.825 18.74 39.529s28.357 8.704 43.27 0 18.096-22.274 18.74-39.529l7.5-200.88c0.1775-12.936-4.8872-25.393-14.041-34.535s-21.617-14.191-34.553-13.996z" fill-rule="evenodd"/>
 </g>
</svg>
