<?xml version="1.0" standalone="no"?>
<!DOCTYPE svg PUBLIC "-//W3C//DTD SVG 20010904//EN"
 "http://www.w3.org/TR/2001/REC-SVG-20010904/DTD/svg10.dtd">
<svg version="1.0" xmlns="http://www.w3.org/2000/svg"
 width="1882.000000pt" height="607.000000pt" viewBox="0 0 1882.000000 607.000000"
 preserveAspectRatio="xMidYMid meet">

<g transform="translate(0.000000,607.000000) scale(0.100000,-0.100000)"
fill="#000000" stroke="none">
<path d="M713 6019 c-166 -19 -321 -96 -444 -218 -127 -127 -198 -275 -219
-457 -13 -121 -14 -4535 0 -4656 20 -177 82 -313 199 -440 100 -109 227 -185
374 -226 58 -16 562 -17 8752 -20 6055 -2 8715 1 8771 8 315 41 571 268 644
573 19 80 20 126 20 2430 0 2605 5 2411 -66 2565 -99 216 -276 363 -516 429
-60 17 -523 18 -8753 19 -4779 1 -8723 -2 -8762 -7z m17516 -35 c247 -61 441
-241 528 -489 l28 -80 0 -2400 0 -2400 -27 -80 c-40 -117 -92 -199 -188 -295
-97 -97 -193 -154 -325 -192 l-80 -23 -8735 0 c-8290 0 -8738 1 -8800 18 -36
9 -108 38 -160 64 -80 39 -109 60 -185 137 -104 104 -162 204 -195 332 -20 76
-20 122 -20 2438 0 2584 -4 2412 59 2550 94 208 284 368 499 421 48 11 1401
13 8796 14 8038 1 8745 0 8805 -15z"/>
<path d="M859 5785 c-144 -29 -270 -96 -374 -200 -75 -75 -122 -147 -162 -245
-56 -139 -54 -32 -51 -2365 l3 -2150 32 -90 c92 -265 285 -437 549 -490 72
-14 845 -15 8609 -13 8197 3 8532 4 8590 21 254 77 442 270 512 527 17 61 18
187 18 2235 l0 2170 -23 80 c-73 252 -258 435 -517 512 -57 17 -440 18 -8590
20 -7047 1 -8542 -1 -8596 -12z m17183 -343 c85 -42 148 -105 190 -190 l33
-67 0 -2170 0 -2170 -32 -68 c-59 -124 -172 -207 -310 -227 -94 -13 -16892
-13 -16986 0 -135 20 -244 98 -309 221 l-33 64 0 2175 0 2175 31 65 c49 104
137 180 249 216 32 10 1700 12 8570 11 l8530 -2 67 -33z"/>
<path d="M16250 4525 c-41 -8 -97 -21 -125 -29 -27 -8 -68 -20 -90 -26 -215
-64 -491 -268 -654 -483 -62 -82 -145 -229 -177 -313 -43 -112 -68 -208 -84
-319 -12 -88 -13 -865 -1 -897 8 -21 90 -86 529 -419 l87 -65 5 -213 5 -213
33 -29 c31 -28 37 -29 123 -29 90 0 91 0 125 34 l34 34 0 99 c0 120 11 147 62
151 56 5 68 -20 68 -146 l0 -104 34 -34 c28 -28 41 -34 77 -34 48 0 105 32
113 65 3 11 6 63 6 115 0 113 12 140 64 140 63 0 70 -14 76 -148 3 -66 7 -122
10 -124 52 -42 67 -48 107 -48 38 0 50 5 79 34 l34 34 0 104 c0 126 12 151 68
146 50 -4 62 -31 62 -146 0 -148 23 -172 165 -172 79 0 87 2 117 29 l33 29 3
211 3 211 142 108 c78 60 185 142 237 182 52 40 126 95 163 123 38 27 73 61
78 74 12 33 11 809 -1 898 -31 218 -121 442 -248 615 -80 109 -243 266 -349
337 -179 119 -375 196 -566 222 -106 15 -355 12 -447 -4z m-180 -1308 c111
-53 174 -131 206 -257 32 -127 -17 -280 -118 -365 -44 -38 -142 -81 -199 -88
-133 -18 -285 54 -356 166 -133 210 -42 476 192 560 75 26 202 19 275 -16z
m1105 19 c194 -59 311 -280 246 -468 -49 -144 -160 -238 -302 -258 -76 -11
-132 -3 -204 30 -144 64 -220 185 -219 346 0 71 4 90 32 146 41 83 63 111 119
149 94 65 222 86 328 55z m-654 -706 c11 -6 30 -32 43 -58 12 -26 40 -78 61
-115 32 -59 36 -72 26 -93 -16 -35 -49 -44 -161 -44 -112 0 -145 9 -161 44
-10 21 -6 34 26 93 21 37 49 89 61 115 32 63 62 80 105 58z"/>
<path d="M1030 4045 l0 -155 28 0 c35 0 48 -9 61 -43 16 -41 15 -1491 0 -1520
-16 -29 -28 -37 -61 -37 l-28 0 0 -155 0 -155 215 0 215 0 0 155 0 155 -33 0
c-22 0 -41 8 -53 21 -18 20 -19 50 -22 785 l-3 764 161 0 160 0 0 -756 c0
-550 -3 -761 -11 -777 -16 -29 -28 -37 -61 -37 l-28 0 0 -155 0 -155 215 0
215 0 0 155 0 155 -29 0 c-16 0 -39 9 -52 19 l-24 19 0 760 c0 733 1 761 19
781 12 13 31 21 53 21 l33 0 0 155 0 155 -485 0 -485 0 0 -155z"/>
<path d="M6260 3633 c0 -5 -20 -136 -45 -292 -25 -157 -45 -293 -45 -302 0
-10 23 -44 52 -77 l52 -60 23 91 c37 147 91 237 142 237 40 0 41 -8 41 -466 0
-487 2 -474 -61 -474 l-29 0 0 -155 0 -155 195 0 195 0 0 155 0 155 -29 0
c-63 0 -61 -12 -61 469 0 477 0 481 54 467 51 -13 115 -139 141 -279 4 -20 10
-37 14 -37 17 0 101 111 101 133 0 14 -20 152 -45 307 -25 155 -45 284 -45
286 0 2 -20 4 -44 4 -43 0 -45 -1 -48 -32 l-3 -33 -230 0 -230 0 -3 33 c-3 31
-5 32 -48 32 -24 0 -44 -3 -44 -7z"/>
<path d="M10000 3633 c0 -5 -20 -136 -45 -292 -25 -157 -45 -293 -45 -302 0
-10 23 -44 52 -77 l52 -60 23 91 c37 147 91 237 142 237 40 0 41 -8 41 -466 0
-487 2 -474 -61 -474 l-29 0 0 -155 0 -155 195 0 195 0 0 155 0 155 -29 0
c-63 0 -61 -12 -61 469 0 477 0 481 54 467 51 -13 115 -139 141 -279 4 -20 10
-37 14 -37 17 0 101 111 101 133 0 14 -20 152 -45 307 -25 155 -45 284 -45
286 0 2 -20 4 -44 4 -43 0 -45 -1 -48 -32 l-3 -33 -230 0 -230 0 -3 33 c-3 31
-5 32 -48 32 -24 0 -44 -3 -44 -7z"/>
<path d="M2354 3585 c-110 -54 -196 -221 -240 -460 -26 -144 -26 -556 0 -700
25 -135 50 -215 98 -308 86 -165 218 -219 346 -140 157 97 256 465 238 888
-13 329 -76 544 -196 667 -81 82 -155 98 -246 53z m134 -338 c50 -53 77 -171
87 -377 7 -139 -6 -343 -27 -428 -17 -70 -56 -141 -83 -154 -57 -26 -102 35
-132 178 -25 118 -25 498 0 613 35 164 97 230 155 168z"/>
<path d="M9495 3595 c-90 -31 -182 -175 -229 -355 -45 -173 -51 -233 -50 -480
0 -213 3 -246 26 -355 75 -353 222 -523 382 -445 83 39 154 145 220 322 l36
97 -44 96 c-23 52 -45 98 -48 101 -4 3 -12 -12 -18 -33 -23 -70 -83 -174 -115
-199 -18 -13 -43 -24 -57 -24 -57 0 -116 96 -145 237 -21 102 -24 399 -4 498
29 148 74 224 124 211 34 -8 52 -51 85 -199 30 -135 49 -173 88 -183 30 -8 57
14 87 71 17 32 22 63 25 156 5 138 -9 206 -68 326 -72 147 -173 201 -295 158z"/>
<path d="M11054 3585 c-110 -54 -196 -221 -240 -460 -26 -144 -26 -556 0 -700
25 -135 50 -215 98 -308 86 -165 218 -219 346 -140 157 97 256 465 238 888
-13 329 -76 544 -196 667 -81 82 -155 98 -246 53z m134 -338 c50 -53 77 -171
87 -377 7 -139 -6 -343 -27 -428 -17 -70 -56 -141 -83 -154 -57 -26 -102 35
-132 178 -25 118 -25 498 0 613 35 164 97 230 155 168z"/>
<path d="M11756 3560 c-32 -27 -81 -57 -107 -66 l-49 -18 0 -153 0 -153 45 0
45 0 0 -776 c0 -515 -3 -782 -10 -795 -8 -13 -21 -19 -45 -19 l-35 0 0 -155 0
-155 195 0 195 0 0 155 0 155 -33 0 c-18 0 -38 5 -45 12 -9 9 -12 74 -12 232
l0 221 26 -39 c58 -85 159 -87 228 -5 246 291 220 1463 -34 1594 -68 35 -126
9 -197 -91 l-48 -66 -3 86 -3 86 -27 -1 c-17 0 -49 -19 -86 -49z m282 -351
c87 -93 95 -706 12 -869 -39 -76 -84 -78 -122 -7 -23 41 -23 49 -26 423 l-3
380 41 47 c46 52 69 58 98 26z"/>
<path d="M14055 3591 c-111 -51 -212 -241 -250 -472 -8 -52 -15 -111 -15 -131
l0 -38 -81 0 -82 0 5 140 c6 149 12 170 54 170 l24 0 0 155 0 155 -185 0 -185
0 0 -155 0 -155 29 0 c61 0 61 2 61 -485 0 -487 0 -485 -61 -485 l-29 0 0
-155 0 -155 185 0 185 0 0 155 0 155 -24 0 c-43 0 -49 21 -54 191 l-5 159 80
0 80 0 6 -92 c14 -216 89 -439 179 -535 31 -33 117 -73 156 -73 164 0 279 168
338 495 23 126 26 535 5 659 -44 261 -129 433 -242 490 -62 31 -118 33 -174 7z
m122 -343 c55 -60 82 -178 90 -393 10 -265 -25 -484 -87 -547 -36 -36 -62 -35
-93 2 -58 68 -81 199 -81 465 0 124 6 237 13 275 34 184 98 263 158 198z"/>
<path d="M3145 3558 c-2 -7 -52 -276 -110 -597 -59 -322 -112 -601 -118 -620
-9 -28 -20 -38 -44 -46 l-33 -9 0 -153 0 -153 170 0 170 0 0 155 0 155 -28 0
c-34 0 -62 27 -62 59 0 30 99 632 108 654 6 16 114 -620 112 -665 0 -24 -28
-48 -56 -48 l-24 0 0 -155 0 -155 195 0 195 0 0 154 c0 151 -1 155 -21 158
-48 7 -55 32 -172 663 l-113 610 -82 3 c-60 2 -83 -1 -87 -10z"/>
<path d="M3610 3415 l0 -155 25 0 c14 0 31 -9 39 -23 8 -12 68 -300 133 -640
l117 -617 -22 -120 c-24 -131 -51 -222 -68 -227 -5 -2 -23 24 -38 58 -46 99
-90 104 -134 17 -63 -125 -21 -381 72 -439 38 -25 92 -20 135 10 38 27 94 140
120 244 11 43 90 441 176 885 86 444 163 817 171 830 9 13 25 22 39 22 l25 0
0 155 0 155 -170 0 -170 0 0 -155 0 -155 35 0 c44 0 59 -25 50 -83 -14 -85
-105 -612 -108 -621 -5 -15 -107 614 -107 655 0 39 12 49 56 49 l24 0 0 155 0
155 -200 0 -200 0 0 -155z"/>
<path d="M4410 3415 l0 -155 28 0 c16 0 37 -6 47 -14 18 -13 20 -33 26 -217 8
-216 19 -276 64 -355 41 -70 62 -78 208 -82 l127 -4 0 -133 c0 -148 -6 -165
-61 -165 l-29 0 0 -155 0 -155 195 0 195 0 0 155 0 155 -29 0 c-63 0 -61 -14
-61 485 0 499 -2 485 61 485 l29 0 0 155 0 155 -185 0 -185 0 0 -155 0 -155
25 0 c14 0 29 -8 35 -19 6 -11 10 -89 10 -180 l0 -161 -71 0 c-39 0 -79 5 -89
10 -28 15 -40 72 -40 190 0 132 5 149 41 157 l29 6 0 153 0 154 -185 0 -185 0
0 -155z"/>
<path d="M5320 3415 l0 -155 25 0 c14 0 34 -9 45 -20 19 -19 20 -33 20 -463 0
-489 0 -487 -61 -487 l-29 0 0 -155 0 -155 185 0 185 0 0 155 0 155 -24 0
c-33 0 -43 16 -51 82 l-7 57 103 178 c83 142 105 173 108 153 2 -14 1 -118 -1
-232 -4 -220 -8 -238 -54 -238 l-24 0 0 -155 0 -155 185 0 185 0 0 155 0 155
-29 0 c-61 0 -61 -2 -61 485 0 487 0 485 61 485 l29 0 0 155 0 155 -185 0
-185 0 0 -155 0 -155 24 0 c33 0 42 -16 50 -83 l7 -57 -103 -178 c-120 -207
-112 -213 -106 84 4 215 8 234 54 234 l24 0 0 155 0 155 -185 0 -185 0 0 -155z"/>
<path d="M7060 3415 l0 -155 25 0 c14 0 34 -9 45 -20 19 -19 20 -33 20 -463 0
-489 0 -487 -61 -487 l-29 0 0 -155 0 -155 250 0 c231 0 254 2 290 20 52 27
84 84 116 206 64 244 32 592 -64 706 -40 47 -77 58 -197 58 l-107 0 4 131 c3
146 10 159 75 159 l33 0 0 155 0 155 -200 0 -200 0 0 -155z m444 -780 c27 -29
36 -65 36 -145 0 -80 -9 -116 -36 -145 -20 -22 -31 -25 -89 -25 l-65 0 0 170
0 170 65 0 c58 0 69 -3 89 -25z"/>
<path d="M8310 3415 l0 -155 25 0 c14 0 34 -9 45 -20 19 -19 20 -33 20 -463 0
-489 0 -487 -61 -487 l-29 0 0 -155 0 -155 185 0 185 0 0 155 0 155 -24 0
c-33 0 -43 16 -51 82 l-7 57 103 178 c83 142 105 173 108 153 2 -14 1 -118 -1
-232 -4 -220 -8 -238 -54 -238 l-24 0 0 -155 0 -155 185 0 185 0 0 155 0 155
-29 0 c-61 0 -61 -2 -61 485 0 487 0 485 61 485 l29 0 0 155 0 155 -185 0
-185 0 0 -155 0 -155 24 0 c33 0 42 -16 50 -83 l7 -57 -103 -178 c-120 -207
-112 -213 -106 84 4 215 8 234 54 234 l24 0 0 155 0 155 -185 0 -185 0 0 -155z"/>
<path d="M12440 3415 l0 -155 25 0 c14 0 34 -9 45 -20 19 -19 20 -33 20 -463
0 -489 0 -487 -61 -487 l-29 0 0 -155 0 -155 185 0 185 0 0 155 0 155 -24 0
c-33 0 -43 16 -51 82 l-7 57 103 178 c83 142 105 173 108 153 2 -14 1 -118 -1
-232 -4 -220 -8 -238 -54 -238 l-24 0 0 -155 0 -155 185 0 185 0 0 155 0 155
-29 0 c-61 0 -61 -2 -61 485 0 487 0 485 61 485 l29 0 0 155 0 155 -185 0
-185 0 0 -155 0 -155 24 0 c33 0 42 -16 50 -83 l7 -57 -103 -178 c-120 -207
-112 -213 -106 84 4 215 8 234 54 234 l24 0 0 155 0 155 -185 0 -185 0 0 -155z"/>
</g>
</svg>
