<?xml version="1.0" standalone="no"?>
<!DOCTYPE svg PUBLIC "-//W3C//DTD SVG 20010904//EN"
 "http://www.w3.org/TR/2001/REC-SVG-20010904/DTD/svg10.dtd">
<svg version="1.0" xmlns="http://www.w3.org/2000/svg"
 width="1920.000000pt" height="1080.000000pt" viewBox="0 0 1920.000000 1080.000000"
 preserveAspectRatio="xMidYMid meet">

<g transform="translate(0.000000,1080.000000) scale(0.100000,-0.100000)"
fill="#000000" stroke="none">
<path d="M2985 7523 c-523 -68 -929 -439 -1041 -953 -18 -80 -19 -150 -19
-1240 0 -1090 1 -1160 19 -1240 104 -475 461 -832 936 -936 82 -18 263 -19
5905 -19 5642 0 5823 1 5905 19 475 104 832 461 936 936 18 80 19 150 19 1240
0 1090 -1 1160 -19 1240 -102 468 -442 814 -916 933 l-85 22 -5805 1 c-3193 1
-5818 -1 -5835 -3z m10154 -899 c190 -28 377 -100 544 -211 93 -62 290 -258
350 -350 301 -456 301 -1020 0 -1476 -60 -92 -257 -288 -351 -351 -454 -300
-1020 -300 -1474 0 -94 63 -291 259 -351 351 -301 457 -301 1019 1 1478 59 90
256 287 349 348 282 186 605 260 932 211z m-9929 -859 l0 -55 -33 0 c-18 0
-38 -5 -45 -12 -15 -15 -16 -181 -2 -208 15 -28 64 -40 162 -40 l90 0 -4 120
c-3 133 -7 140 -65 140 l-33 0 0 55 0 55 195 0 195 0 0 -55 c0 -52 -1 -55 -26
-55 -14 0 -34 -5 -45 -10 -18 -10 -19 -24 -19 -280 0 -256 1 -270 19 -280 11
-5 31 -10 45 -10 25 0 26 -3 26 -55 l0 -55 -195 0 -195 0 0 54 0 53 41 6 c22
3 43 8 47 11 3 4 8 47 10 95 l4 89 -158 4 c-153 3 -161 4 -206 31 -74 43 -96
89 -104 222 -4 61 -12 113 -18 117 -6 4 -26 8 -43 8 l-33 0 0 55 0 55 195 0
195 0 0 -55z m1496 -160 c5 -13 38 -15 209 -15 171 0 204 2 209 15 3 10 19 15
45 15 l39 0 41 -102 c23 -57 41 -106 41 -110 0 -4 -21 -16 -46 -28 l-46 -20
-40 45 c-25 28 -54 49 -78 56 -69 21 -70 19 -70 -160 0 -172 0 -171 56 -171
22 0 24 -3 24 -55 l0 -55 -175 0 -175 0 0 55 c0 54 1 55 28 55 49 0 52 12 52
177 0 173 -1 175 -72 154 -41 -13 -70 -36 -98 -79 l-15 -23 -47 21 c-27 11
-48 25 -48 30 0 5 14 44 31 87 17 43 35 88 40 101 7 18 16 22 49 22 27 0 43
-5 46 -15z m1430 0 c5 -13 38 -15 209 -15 171 0 204 2 209 15 3 10 19 15 45
15 l39 0 41 -102 c23 -57 41 -106 41 -110 0 -4 -21 -16 -46 -28 l-46 -20 -40
45 c-25 28 -54 49 -78 56 -69 21 -70 19 -70 -160 0 -172 0 -171 56 -171 22 0
24 -3 24 -55 l0 -55 -175 0 -175 0 0 55 c0 54 1 55 28 55 49 0 52 12 52 177 0
173 -1 175 -72 154 -41 -13 -70 -36 -98 -79 l-15 -23 -47 21 c-27 11 -48 25
-48 30 0 5 14 44 31 87 17 43 35 88 40 101 7 18 16 22 49 22 27 0 43 -5 46
-15z m-371 -35 c81 -42 89 -66 93 -258 3 -150 5 -163 24 -173 11 -6 31 -8 44
-5 23 6 24 5 24 -53 0 -52 -2 -59 -22 -65 -67 -18 -167 2 -210 40 -15 15 -22
14 -74 -12 -66 -32 -153 -42 -207 -25 -20 7 -52 30 -71 52 -31 34 -36 46 -36
90 0 105 71 159 250 188 l100 16 0 37 c0 76 -34 115 -91 103 -22 -5 -35 -18
-50 -48 -32 -63 -58 -87 -94 -87 -48 0 -85 34 -85 76 0 93 112 156 270 151 69
-2 95 -7 135 -27z m3360 0 c81 -42 89 -66 93 -258 3 -150 5 -163 24 -173 11
-6 31 -8 44 -5 23 6 24 5 24 -53 0 -52 -2 -59 -22 -65 -67 -18 -167 2 -210 40
-15 15 -22 14 -74 -12 -66 -32 -153 -42 -207 -25 -20 7 -52 30 -71 52 -31 34
-36 46 -36 90 0 105 71 159 250 188 l100 16 0 37 c0 76 -34 115 -91 103 -22
-5 -35 -18 -50 -48 -32 -63 -58 -87 -94 -87 -48 0 -85 34 -85 76 0 93 112 156
270 151 69 -2 95 -7 135 -27z m1337 16 c25 -7 63 -26 84 -42 47 -36 94 -132
94 -191 l0 -43 -190 0 -190 0 0 -25 c0 -58 54 -119 116 -131 44 -8 114 17 161
59 l34 30 42 -41 41 -42 -38 -39 c-21 -22 -66 -55 -100 -73 -57 -31 -67 -33
-156 -33 -79 0 -102 4 -137 23 -138 73 -200 213 -159 354 25 89 109 169 206
199 41 12 144 10 192 -5z m680 0 c25 -7 63 -26 84 -42 47 -36 94 -132 94 -191
l0 -43 -190 0 -190 0 0 -25 c0 -58 54 -119 116 -131 44 -8 114 17 161 59 l34
30 42 -41 41 -42 -38 -39 c-21 -22 -66 -55 -100 -73 -57 -31 -67 -33 -156 -33
-79 0 -102 4 -137 23 -138 73 -200 213 -159 354 25 89 109 169 206 199 41 12
144 10 192 -5z m-7032 -51 c0 -51 -2 -55 -23 -55 -38 0 -47 -19 -47 -103 l0
-78 90 62 c54 36 90 68 90 78 0 24 -20 41 -47 41 -21 0 -23 4 -23 55 l0 55
170 0 170 0 0 -55 c0 -53 -1 -55 -27 -55 -56 0 -58 -6 -58 -175 0 -169 2 -175
58 -175 26 0 27 -2 27 -55 l0 -55 -170 0 -170 0 0 55 c0 51 2 55 23 55 38 0
47 19 47 97 l0 74 -90 -61 c-49 -33 -90 -66 -90 -73 0 -20 22 -37 47 -37 21 0
23 -4 23 -55 l0 -55 -170 0 -170 0 0 55 c0 52 2 55 24 55 56 0 56 -1 56 175 0
176 0 175 -56 175 -22 0 -24 3 -24 55 l0 55 170 0 170 0 0 -55z m3020 0 c0
-54 0 -55 -29 -55 -53 0 -61 -8 -61 -61 l0 -49 113 0 c97 0 119 -3 157 -22 89
-46 115 -159 57 -248 -50 -75 -50 -75 -339 -78 l-258 -3 0 55 c0 53 2 56 24
56 56 0 56 -1 56 175 0 176 0 175 -56 175 -22 0 -24 3 -24 55 l0 55 180 0 180
0 0 -55z m1460 0 c0 -52 -2 -55 -24 -55 -56 0 -56 1 -56 -175 0 -179 -1 -175
64 -175 32 0 33 -2 61 -82 16 -46 30 -88 32 -94 2 -6 -20 -21 -49 -33 -29 -12
-54 -18 -56 -13 -12 36 -68 93 -100 102 -57 16 -406 13 -445 -4 -31 -12 -68
-49 -92 -91 -10 -16 -13 -16 -58 6 -27 13 -47 30 -46 38 0 9 12 50 28 91 27
73 28 75 63 78 20 2 43 11 52 21 20 22 136 279 136 301 0 18 -27 30 -67 30
-21 0 -23 5 -23 55 l0 55 290 0 290 0 0 -55z m1264 -170 c95 -207 103 -221
134 -230 31 -9 32 -11 32 -62 l0 -53 -175 0 -175 0 0 55 c0 55 0 55 30 55 17
0 33 6 36 14 5 13 -85 251 -92 244 -7 -8 -94 -224 -94 -234 0 -14 23 -24 56
-24 22 0 24 -3 24 -55 l0 -55 -155 0 -155 0 0 54 c0 53 0 54 34 60 33 6 36 11
137 232 l103 225 79 -3 79 -3 102 -220z"/>
<path d="M12715 6450 c-229 -49 -416 -151 -580 -315 -145 -146 -249 -324 -302
-522 -25 -90 -27 -114 -27 -288 0 -174 2 -198 27 -288 53 -198 157 -376 302
-522 146 -145 324 -249 522 -302 90 -25 114 -27 288 -27 174 0 198 2 288 27
198 53 376 157 522 302 145 146 249 324 302 522 25 90 27 114 27 288 0 174 -2
198 -27 288 -53 198 -157 376 -302 522 -146 146 -326 250 -522 302 -137 36
-384 42 -518 13z m696 -905 c144 -145 269 -267 278 -270 9 -3 24 -16 33 -29
17 -23 16 -24 -264 -305 l-281 -281 -68 0 -69 0 0 235 0 235 -501 0 -501 0
-29 29 c-42 42 -41 99 2 135 l31 26 499 0 499 0 0 245 0 245 54 0 54 0 263
-265z"/>
<path d="M5612 5256 c-29 -7 -61 -21 -73 -32 -27 -25 -21 -64 13 -83 24 -14
31 -13 75 5 48 20 48 20 51 72 2 29 -1 52 -5 51 -4 0 -32 -6 -61 -13z"/>
<path d="M8972 5256 c-29 -7 -61 -21 -73 -32 -27 -25 -21 -64 13 -83 24 -14
31 -13 75 5 48 20 48 20 51 72 2 29 -1 52 -5 51 -4 0 -32 -6 -61 -13z"/>
<path d="M10321 5496 c-26 -15 -50 -52 -51 -78 0 -16 11 -18 90 -18 89 0 90 0
90 24 0 57 -79 101 -129 72z"/>
<path d="M11001 5496 c-26 -15 -50 -52 -51 -78 0 -16 11 -18 90 -18 89 0 90 0
90 24 0 57 -79 101 -129 72z"/>
<path d="M7040 5200 l0 -60 55 0 c86 0 122 26 108 79 -7 26 -45 41 -108 41
l-55 0 0 -60z"/>
<path d="M8191 5319 c-48 -118 -59 -155 -50 -165 8 -10 36 -14 95 -14 l84 0 0
165 0 165 -34 0 -33 0 -62 -151z"/>
</g>
</svg>
