<?xml version="1.0" standalone="no"?>
<!DOCTYPE svg PUBLIC "-//W3C//DTD SVG 20010904//EN"
 "http://www.w3.org/TR/2001/REC-SVG-20010904/DTD/svg10.dtd">
<svg version="1.0" xmlns="http://www.w3.org/2000/svg"
 width="1882.000000pt" height="607.000000pt" viewBox="0 0 1882.000000 607.000000"
 preserveAspectRatio="xMidYMid meet">
<metadata>
Created by potrace 1.16, written by Peter Selinger 2001-2019
</metadata>
<g transform="translate(0.000000,607.000000) scale(0.100000,-0.100000)"
fill="#000000" stroke="none">
<path d="M650 6015 c-304 -65 -531 -294 -594 -598 -14 -68 -16 -322 -16 -2401
0 -2519 -3 -2397 53 -2536 41 -101 88 -171 172 -255 113 -113 232 -179 383
-210 101 -22 17463 -22 17564 0 147 31 266 95 378 205 120 118 193 261 219
428 8 50 11 758 11 2374 -1 1895 -3 2316 -14 2378 -56 310 -291 551 -598 614
-70 15 -885 16 -8785 15 -7382 0 -8718 -3 -8773 -14z m17579 -31 c247 -61 441
-241 528 -489 l28 -80 0 -2400 0 -2400 -27 -80 c-40 -117 -92 -199 -188 -295
-97 -97 -193 -154 -325 -192 l-80 -23 -8735 0 c-8290 0 -8738 1 -8800 18 -36
9 -108 38 -160 64 -80 39 -109 60 -185 137 -104 104 -162 204 -195 332 -20 76
-20 122 -20 2438 0 2584 -4 2412 59 2550 94 208 284 368 499 421 48 11 1401
13 8796 14 8038 1 8745 0 8805 -15z"/>
<path d="M859 5785 c-144 -29 -270 -96 -374 -200 -75 -75 -122 -147 -162 -245
-56 -139 -54 -32 -51 -2365 l3 -2150 32 -90 c92 -265 285 -437 549 -490 72
-14 845 -15 8609 -13 8197 3 8532 4 8590 21 254 77 442 270 512 527 17 61 18
187 18 2235 l0 2170 -23 80 c-73 252 -258 435 -517 512 -57 17 -440 18 -8590
20 -7047 1 -8542 -1 -8596 -12z m17183 -343 c85 -42 148 -105 190 -190 l33
-67 0 -2170 0 -2170 -32 -68 c-59 -124 -172 -207 -310 -227 -94 -13 -16892
-13 -16986 0 -135 20 -244 98 -309 221 l-33 64 0 2175 0 2175 31 65 c49 104
137 180 249 216 32 10 1700 12 8570 11 l8530 -2 67 -33z"/>
<path d="M1140 4292 l0 -150 65 -4 c51 -3 70 -9 88 -26 l22 -23 0 -735 0 -736
-28 -24 c-23 -20 -39 -24 -88 -24 l-59 0 0 -151 0 -150 498 4 c434 3 506 6
567 21 201 51 335 186 402 402 14 45 18 90 18 194 -1 120 -4 143 -28 213 -51
147 -118 226 -240 282 l-69 32 45 26 c102 60 191 188 222 318 19 83 19 229 0
304 -36 135 -128 260 -230 313 -111 56 -109 56 -667 60 l-518 3 0 -149z m944
-232 c90 -46 134 -171 106 -303 -15 -73 -60 -133 -124 -166 -45 -23 -62 -26
-208 -29 l-158 -4 0 267 0 267 168 -4 c155 -3 172 -5 216 -28z m-55 -831 c122
-26 190 -113 199 -254 10 -157 -52 -283 -163 -331 -56 -25 -311 -33 -340 -11
-18 14 -20 31 -23 311 l-4 296 140 0 c78 0 163 -5 191 -11z"/>
<path d="M15959 4157 c-18 -12 -47 -44 -64 -71 -27 -44 -30 -57 -29 -125 1
-53 9 -99 28 -154 25 -76 110 -251 162 -334 l26 -43 -701 0 -701 0 0 -415 0
-415 700 0 c385 0 700 -2 700 -5 0 -2 -15 -28 -34 -57 -104 -163 -180 -362
-181 -474 0 -62 4 -77 30 -120 41 -65 85 -94 144 -94 26 0 58 8 74 18 65 41
1435 1138 1433 1147 -4 16 -1436 1153 -1460 1159 -44 12 -94 5 -127 -17z"/>
<path d="M8610 3853 c-5 -21 -43 -155 -84 -298 l-73 -260 95 -62 95 -61 33 80
c18 44 49 104 69 134 59 85 153 137 220 120 43 -11 47 -48 43 -488 -3 -471 4
-439 -103 -446 l-65 -4 0 -149 0 -149 345 0 345 0 0 149 0 149 -66 4 c-78 5
-90 16 -99 92 -3 28 -5 220 -3 427 3 354 4 378 22 398 12 13 31 21 51 21 44 0
130 -45 165 -88 36 -44 86 -137 108 -202 l17 -49 93 59 c52 32 95 60 97 62 2
2 -34 136 -80 298 l-83 295 -75 3 -76 3 -7 -36 -6 -35 -401 2 -401 3 -10 33
-9 32 -73 0 -73 0 -11 -37z"/>
<path d="M3265 3838 c-227 -43 -409 -266 -476 -583 -20 -93 -17 -334 5 -430
92 -402 370 -638 678 -574 29 6 86 27 127 46 88 42 211 158 284 267 l46 69
-50 71 c-28 39 -61 86 -72 103 -12 18 -24 33 -27 33 -3 0 -23 -23 -44 -50 -55
-72 -122 -128 -191 -161 -100 -48 -180 -35 -255 40 -71 71 -108 163 -125 309
l-6 52 376 0 375 0 0 78 c0 157 -45 348 -113 477 -41 78 -146 184 -217 218
-92 45 -201 57 -315 35z m180 -312 c50 -30 91 -99 103 -179 l9 -57 -188 0
-188 0 5 33 c18 103 64 179 129 212 43 21 82 19 130 -9z"/>
<path d="M4387 3808 c-43 -22 -126 -52 -185 -67 l-107 -27 -3 -147 -3 -147 86
0 85 0 -2 -751 -3 -751 -24 -19 c-17 -14 -39 -19 -82 -19 l-59 0 0 -150 0
-150 345 0 345 0 0 150 0 150 -59 0 c-43 0 -65 5 -82 19 -23 19 -24 23 -27
230 -3 116 -2 211 1 211 4 0 31 -18 62 -39 90 -63 193 -77 306 -41 144 45 250
173 325 392 76 226 78 583 2 818 -51 160 -151 296 -256 347 -49 24 -69 28
-142 28 -74 0 -92 -4 -140 -28 -30 -16 -85 -53 -122 -83 -37 -30 -69 -54 -72
-54 -4 0 -6 38 -6 85 l0 85 -52 -1 c-40 -1 -72 -11 -131 -41z m478 -358 c40
-25 80 -98 101 -186 24 -103 15 -403 -14 -494 -40 -123 -112 -188 -195 -177
-54 7 -87 33 -117 92 -24 49 -24 53 -28 366 l-4 315 33 29 c44 37 126 75 163
75 16 0 43 -9 61 -20z"/>
<path d="M11903 3835 c-318 -69 -538 -468 -494 -897 15 -143 35 -217 91 -333
58 -120 136 -218 219 -273 271 -180 576 -90 800 237 l60 88 -77 96 c-42 53
-80 96 -83 96 -3 1 -29 -30 -57 -68 -63 -84 -110 -127 -176 -157 -161 -75
-317 40 -372 273 -22 90 -21 267 0 357 32 133 108 238 183 252 85 16 131 -29
193 -185 48 -123 82 -165 144 -176 53 -10 95 4 143 47 82 77 97 229 36 360
-40 85 -143 194 -223 237 -107 57 -255 75 -387 46z"/>
<path d="M5560 3671 l0 -149 61 -4 c105 -8 99 21 99 -473 0 -494 6 -465 -99
-473 l-61 -4 0 -149 0 -149 320 0 320 0 0 150 0 150 -38 0 c-73 0 -77 8 -80
184 l-3 156 176 0 177 0 -4 -155 c-2 -102 -7 -158 -15 -166 -6 -6 -35 -14 -62
-17 l-51 -5 0 -148 0 -149 325 0 325 0 0 149 0 148 -67 6 c-82 6 -89 15 -98
110 -9 95 -1 777 9 799 10 22 58 38 112 38 l44 0 0 150 0 150 -325 0 -325 0 0
-150 0 -150 33 0 c86 -1 97 -22 97 -191 l0 -119 -176 0 -176 0 4 141 c3 159 8
169 80 169 l38 0 0 150 0 150 -320 0 -320 0 0 -149z"/>
<path d="M7070 3670 l0 -150 35 0 c49 0 82 -18 100 -56 23 -49 405 -1175 405
-1194 0 -21 -71 -234 -90 -270 -18 -35 -51 -70 -66 -70 -8 0 -32 25 -54 55
-52 71 -82 90 -142 90 -40 0 -52 -5 -82 -34 -49 -48 -71 -110 -70 -196 2 -83
26 -145 80 -205 59 -65 105 -85 199 -85 129 0 213 50 295 177 53 81 69 124
365 978 291 842 277 810 361 810 l44 0 0 150 0 150 -300 0 -300 0 0 -150 0
-150 58 0 c79 0 96 -14 90 -71 -6 -46 -179 -619 -188 -619 -7 0 -190 623 -190
648 0 29 28 42 89 42 l51 0 0 150 0 150 -345 0 -345 0 0 -150z"/>
<path d="M10010 3671 l0 -149 61 -4 c105 -8 99 21 99 -473 0 -494 6 -465 -99
-473 l-61 -4 0 -150 0 -149 463 3 462 3 67 33 c93 45 134 100 185 246 20 54
27 98 30 186 6 130 -8 204 -57 300 -42 83 -73 115 -148 152 l-67 33 -213 4
-214 3 3 124 c5 152 7 155 113 162 l76 5 0 148 0 149 -350 0 -350 0 0 -149z
m787 -767 c41 -31 58 -71 58 -139 0 -73 -25 -122 -75 -147 -27 -14 -60 -18
-147 -18 l-113 0 0 166 0 166 124 -4 c108 -3 128 -6 153 -24z"/>
<path d="M13014 3806 c-98 -24 -167 -85 -215 -191 -90 -200 -85 -421 13 -585
29 -47 110 -119 150 -132 17 -6 -119 -264 -153 -292 -19 -16 -48 -28 -79 -32
l-50 -7 0 -149 0 -148 171 2 172 3 135 298 136 297 93 0 93 0 0 -127 c0 -71
-4 -133 -8 -140 -12 -20 -60 -33 -118 -33 l-54 0 0 -150 0 -150 350 0 350 0 0
150 0 150 -49 0 c-74 0 -98 13 -110 57 -15 51 -15 785 0 836 12 44 36 57 110
57 l49 0 0 150 0 150 -467 -1 c-335 0 -482 -4 -519 -13z m466 -481 l0 -165
-132 0 c-151 0 -187 11 -225 69 -18 26 -23 48 -23 96 0 48 5 70 23 96 38 58
74 69 225 69 l132 0 0 -165z"/>
</g>
</svg>
